<?xml version="1.0" encoding="UTF-8"?>
<svg version="1.1" xmlns="http://www.w3.org/2000/svg" width="141" height="140">
<path d="M0 0 C1.26779297 0.0112793 2.53558594 0.02255859 3.84179688 0.03417969 C30.89613433 0.42777265 30.89613433 0.42777265 36.8125 6.3125 C38.03515625 8.3828125 38.03515625 8.3828125 38.875 10.4375 C40.11408279 13.54696869 40.11408279 13.54696869 42.85546875 15.30859375 C44.8125 16.3125 44.8125 16.3125 45.640625 18.08984375 C47.59209893 28.08211306 48.67873286 41.48368041 43.4921875 50.64453125 C41.8125 52.3125 41.8125 52.3125 39.90234375 52.640625 C39.19207031 52.61484375 38.48179688 52.5890625 37.75 52.5625 C32.08371669 52.88761462 28.9909999 55.93602669 24.87890625 59.59765625 C22.8125 61.3125 22.8125 61.3125 20.8125 61.3125 C20.8125 61.9725 20.8125 62.6325 20.8125 63.3125 C19.86890625 63.93705078 19.86890625 63.93705078 18.90625 64.57421875 C16.12828761 66.88054946 15.98271506 68.61959887 15.3125 72.125 C13.96131491 78.23117526 12.25795029 81.86704971 7.8125 86.3125 C3.26005354 86.65608086 -0.07331814 86.30725484 -4.1875 84.3125 C-4.1875 83.6525 -4.1875 82.9925 -4.1875 82.3125 C-5.00089844 82.46203125 -5.81429687 82.6115625 -6.65234375 82.765625 C-22.39453712 85.20088143 -35.69275683 82.57714623 -50.75 78.0625 C-51.58121368 77.81657104 -52.41242737 77.57064209 -53.26882935 77.31726074 C-55.66596503 76.60002757 -58.05468748 75.86047752 -60.44140625 75.109375 C-61.16352295 74.88934814 -61.88563965 74.66932129 -62.62963867 74.44262695 C-66.74904269 73.09758585 -69.44726856 71.69826469 -72.1875 68.3125 C-74.10527611 64.47694778 -73.4158631 59.78169611 -73.4375 55.5625 C-73.458125 54.5725 -73.47875 53.5825 -73.5 52.5625 C-73.54319408 44.48520721 -71.91294845 39.63331927 -66.1875 33.75 C-60.71521149 28.43866115 -54.5831754 25.75502446 -47.4140625 23.40234375 C-46.67929687 23.04269531 -45.94453125 22.68304688 -45.1875 22.3125 C-44.89875 21.1575 -44.61 20.0025 -44.3125 18.8125 C-43.94125 17.6575 -43.57 16.5025 -43.1875 15.3125 C-40.1875 14.5 -40.1875 14.5 -38.29296875 14.1640625 C-34.37289334 12.57857745 -31.94867562 8.91612033 -29.30078125 5.72265625 C-21.0655536 -0.65267055 -9.96186757 -0.14533229 0 0 Z M21.00390625 7.37890625 C13.80973163 11.44123198 7.68392672 10.40826633 -0.25 9.25 C-1.54744141 9.08822266 -2.84488281 8.92644531 -4.18164062 8.75976562 C-14.11801453 7.51583032 -14.11801453 7.51583032 -18.12304688 6.75439453 C-22.73550046 5.89952799 -22.73550046 5.89952799 -27.01489258 7.37866211 C-28.7040673 8.92595726 -30.12767431 10.52781271 -31.5625 12.3125 C-33.3683625 14.45313075 -35.15958184 16.3618925 -37.1875 18.3125 C-39.5390625 18.1875 -39.5390625 18.1875 -41.1875 17.3125 C-40.8575 19.2925 -40.5275 21.2725 -40.1875 23.3125 C-42.75969097 24.35730617 -45.33019576 25.36275636 -47.94921875 26.28515625 C-56.70947049 29.54832078 -62.93685142 34.25716293 -68.94140625 41.3984375 C-70.90421984 45.9885909 -70.62011571 50.5017541 -70.5625 55.4375 C-70.57410156 56.43910156 -70.58570312 57.44070312 -70.59765625 58.47265625 C-70.59378906 59.43300781 -70.58992188 60.39335938 -70.5859375 61.3828125 C-70.58255371 62.25695801 -70.57916992 63.13110352 -70.57568359 64.03173828 C-70.09920886 66.83125208 -69.45377196 67.63789615 -67.1875 69.3125 C-65.10610198 70.27138859 -65.10610198 70.27138859 -62.75 70.9609375 C-61.86465576 71.24195312 -60.97931152 71.52296875 -60.06713867 71.8125 C-59.11685791 72.10125 -58.16657715 72.39 -57.1875 72.6875 C-56.20434814 72.98914063 -55.22119629 73.29078125 -54.20825195 73.6015625 C-52.18174027 74.21762466 -50.15347707 74.82795364 -48.12353516 75.43261719 C-45.44270858 76.23601807 -42.77449885 77.07254795 -40.10546875 77.9140625 C-26.87238595 81.92016101 -15.74341557 81.31428028 -2.1875 79.3125 C-1.5275 80.6325 -0.8675 81.9525 -0.1875 83.3125 C3.14450185 83.73021804 3.14450185 83.73021804 6.8125 83.3125 C11.2062387 79.65105108 12.85367356 73.82351181 13.8125 68.3125 C13.45850033 66.08162738 13.45850033 66.08162738 12.8125 64.3125 C11.85730469 64.64701172 11.85730469 64.64701172 10.8828125 64.98828125 C6.3978925 65.46187967 2.88399832 63.99201345 -1.3125 62.5 C-2.12332031 62.22607422 -2.93414062 61.95214844 -3.76953125 61.66992188 C-7.27664411 60.46127224 -10.07440736 59.38789509 -13.1875 57.3125 C-15.68975952 57.14520406 -15.68975952 57.14520406 -18.5 57.3125 C-25.53383005 57.45024943 -32.26215362 56.45989467 -39.1875 55.3125 C-39.14109375 54.38308594 -39.0946875 53.45367187 -39.046875 52.49609375 C-39.21087421 48.78333382 -40.3493233 47.55591903 -42.8125 44.8828125 C-46.31567129 40.88203166 -48.2930347 36.54512198 -49.1875 31.3125 C-45.89640236 30.85002247 -42.60459196 30.39284413 -39.3125 29.9375 C-38.32483643 29.80029541 -37.33717285 29.66309082 -36.31958008 29.52172852 C-31.46985463 28.85815562 -26.62404226 28.2325879 -21.75390625 27.73828125 C-20.92810059 27.65433105 -20.10229492 27.57038086 -19.25146484 27.48388672 C-17.68878181 27.33009071 -16.12528167 27.18434625 -14.56103516 27.04736328 C-12.76185063 26.8705648 -10.97217564 26.60104037 -9.1875 26.3125 C-8.8575 25.6525 -8.5275 24.9925 -8.1875 24.3125 C-5.625 23.6875 -5.625 23.6875 -3.1875 23.3125 C-3.1875 22.3225 -3.1875 21.3325 -3.1875 20.3125 C-2.25478271 20.37308594 -1.32206543 20.43367188 -0.36108398 20.49609375 C3.12578465 20.72151449 6.61277071 20.94491868 10.09985352 21.16699219 C11.60413655 21.26319915 13.10836961 21.36019103 14.61254883 21.45800781 C16.78453863 21.59911156 18.95669724 21.73731697 21.12890625 21.875 C22.43287354 21.95878906 23.73684082 22.04257812 25.08032227 22.12890625 C28.66501822 22.30524506 32.2241836 22.34499183 35.8125 22.3125 C35.6475 23.50875 35.4825 24.705 35.3125 25.9375 C34.97521599 28.57955808 34.8125 31.01017121 34.8125 33.6875 C34.8125 36.3125 34.8125 36.3125 33.8125 38.3125 C33.66648294 39.97484811 33.59160166 41.64400507 33.5625 43.3125 C33.53671875 44.199375 33.5109375 45.08625 33.484375 46 C33.59265625 46.763125 33.7009375 47.52625 33.8125 48.3125 C36.49921748 50.53988107 36.49921748 50.53988107 38.875 50.1875 C41.45749192 49.02121333 41.75226146 47.90419421 42.8125 45.3125 C43.2248819 43.02366951 43.2248819 43.02366951 43.375 40.6875 C43.71527778 36.50694444 43.71527778 36.50694444 44.8125 34.3125 C45.13596876 29.02917698 44.9402586 23.2404692 42.8125 18.3125 C41.48570169 17.63292038 40.15182062 16.96705519 38.8125 16.3125 C37.46875 14.25390625 37.46875 14.25390625 36.3125 11.875 C34.621036 8.40635593 33.19430187 6.2747022 29.8125 4.3125 C25.3456631 4.3125 24.56228951 4.97531391 21.00390625 7.37890625 Z M-26.1875 37.3125 C-25.8575 40.9425 -25.5275 44.5725 -25.1875 48.3125 C-23.5375 48.3125 -21.8875 48.3125 -20.1875 48.3125 C-21.63700455 44.5214881 -23.33922566 40.9250362 -25.1875 37.3125 C-25.5175 37.3125 -25.8475 37.3125 -26.1875 37.3125 Z M26.8125 51.3125 C25.8225 52.7975 25.8225 52.7975 24.8125 54.3125 C26.1325 53.6525 27.4525 52.9925 28.8125 52.3125 C28.1525 51.9825 27.4925 51.6525 26.8125 51.3125 Z M22.8125 54.3125 C20.5025 55.9625 18.1925 57.6125 15.8125 59.3125 C16.1425 60.3025 16.4725 61.2925 16.8125 62.3125 C19.4525 60.0025 22.0925 57.6925 24.8125 55.3125 C24.1525 54.9825 23.4925 54.6525 22.8125 54.3125 Z " fill="#FFFFFF" transform="translate(84.1875,26.6875)"/>
</svg>
